<svg xmlns="http://www.w3.org/2000/svg" viewBox="0 0 202.89 87.49"><defs><style>.cls-1,.cls-2{fill:#231f20;}.cls-2{stroke:#231f20;stroke-miterlimit:10;}</style></defs><g id="Layer_2" data-name="Layer 2"><g id="Layer_2-2" data-name="Layer 2"><polygon class="cls-1" points="28.05 33.84 28.05 14.8 26.42 14.8 26.42 53.28 28.05 53.28 28.05 35.48 44.1 35.48 44.1 53.42 45.73 53.42 45.73 33.84 28.05 33.84"/><path class="cls-1" d="M19.6,14.68H0v38.6H1.46V35.53l18,0v0h.15ZM1.53,16.21H18.07V34H1.53Z"/><polygon class="cls-1" points="124.04 33.84 105.05 33.84 104.89 33.85 104.89 34.08 104.89 53.21 106.52 53.21 106.52 35.48 124.04 35.48 124.04 33.84"/><path class="cls-1" d="M150.48,52.21V32h-1.39v2h-18V53.44h22.75V52.21Zm-18-16.9h16.6V52.05h-16.6Z"/><polygon class="cls-1" points="202.89 34.06 201.26 34.06 201.26 51.79 185.14 51.79 185.14 34.06 183.5 34.06 183.5 53.42 201.22 53.42 201.22 70.92 183.56 70.92 183.56 72.55 202.85 72.55 202.85 53.42 202.89 53.42 202.89 34.06"/><polygon class="cls-1" points="176.67 33.89 157.69 33.89 157.52 33.89 157.52 34.12 157.52 53.25 159.15 53.25 159.15 35.52 176.67 35.52 176.67 33.89"/><rect class="cls-2" x="53.04" y="19.84" width="9.6" height="9.53"/><rect class="cls-2" x="62.8" y="10.13" width="9.6" height="9.53"/><rect class="cls-2" x="52.97" y="0.5" width="9.6" height="9.53"/><rect class="cls-2" x="88.88" y="77.46" width="9.6" height="9.53" transform="translate(187.36 164.45) rotate(-180)"/><rect class="cls-2" x="79.12" y="67.75" width="9.6" height="9.53" transform="translate(167.83 145.03) rotate(-180)"/><rect class="cls-2" x="88.95" y="58.12" width="9.6" height="9.53" transform="translate(187.49 125.76) rotate(-180)"/><path d="M80.32,33.92V14.62H78.69v19.3h0V53.44H98.07V33.92Zm16.19,18H80.13V35.62H96.51Z"/><path class="cls-1" d="M52.41,34.06V53.19h19V34.06ZM69.88,51.79H53.82V35.59H69.88Z"/></g></g></svg>