<svg xmlns="http://www.w3.org/2000/svg" viewBox="0 0 106.11 31.54"><defs><style>.cls-1{isolation:isolate;}.cls-2{mix-blend-mode:multiply;opacity:0.15;}.cls-3{fill:#231f20;}.cls-4,.cls-5{fill:#fff;}.cls-5{stroke:#231f20;stroke-miterlimit:10;stroke-width:0.25px;}</style></defs><g class="cls-1"><g id="Layer_2" data-name="Layer 2"><g id="Layer_2-2" data-name="Layer 2"><g class="cls-2"><rect class="cls-3" x="15.67" y="12.05" width="1.77" height="14.17"/><rect class="cls-3" x="44.1" y="1.42" width="1.77" height="12.49"/><rect class="cls-3" x="61.82" y="13.82" width="12.4" height="12.4"/><rect class="cls-3" x="75.99" y="13.74" width="1.77" height="12.49"/><rect class="cls-3" x="75.99" y="27.99" width="30.12" height="3.54"/><polygon class="cls-3" points="104.34 13.82 104.34 24.45 97.25 24.45 97.25 13.82 93.63 13.82 93.63 26.3 106.11 26.3 106.11 13.82 104.34 13.82"/><rect class="cls-3" x="104.34" y="24.45" width="1.77" height="5.31"/><polygon class="cls-3" points="86.62 13.73 86.62 24.45 84.85 24.45 84.85 13.73 79.54 13.73 79.54 26.22 81.31 26.22 81.31 15.59 83.08 15.59 83.08 26.22 88.4 26.22 88.4 15.59 90.17 15.59 90.17 26.22 92.02 26.22 92.02 13.73 86.62 13.73"/><rect class="cls-3" x="93.71" y="13.82" width="12.4" height="1.77"/><rect class="cls-3" x="1.58" y="27.99" width="58.46" height="3.54"/><polygon class="cls-3" points="58.28 13.82 58.28 24.45 51.19 24.45 51.19 13.82 47.56 13.82 47.56 26.3 60.05 26.3 60.05 13.82 58.28 13.82"/><rect class="cls-3" x="58.28" y="24.45" width="1.77" height="5.31"/><polygon class="cls-3" points="3.27 17.36 13.99 17.36 13.9 13.82 1.42 13.82 1.42 20.91 1.5 20.91 12.13 20.91 12.13 22.68 12.13 22.68 1.58 22.68 13.9 26.3 13.9 19.13 3.27 19.13 3.27 17.36 3.27 17.36"/><polyline class="cls-3" points="19.22 26.22 31.7 26.22 31.7 13.73 29.93 13.73 29.93 24.36 28.16 24.36 28.16 24.36 26.39 24.36"/><polyline class="cls-3" points="22.84 24.36 22.84 24.36 22.84 13.82"/><polyline class="cls-3" points="26.39 24.36 24.62 24.36 22.84 24.36"/><line class="cls-3" x1="22.84" y1="24.37" x2="24.62" y2="24.37"/><line class="cls-3" x1="24.62" y1="24.37" x2="26.39" y2="24.37"/><line class="cls-3" x1="28.16" y1="13.74" x2="28.16" y2="13.74"/><polyline class="cls-3" points="37.08 24.45 37.08 24.45 37.02 13.82 33.48 13.82 33.48 26.3 45.88 26.3 45.88 13.82 44.12 13.82 44.12 24.45 42.36 24.45 42.36 24.45 40.6 24.45"/><polyline class="cls-3" points="40.6 24.36 38.84 24.36 37.08 24.36"/><line class="cls-3" x1="35.32" y1="13.74" x2="35.32" y2="13.74"/><line class="cls-3" x1="37.08" y1="24.37" x2="38.84" y2="24.37"/><line class="cls-3" x1="38.84" y1="24.37" x2="40.6" y2="24.37"/><line class="cls-3" x1="42.36" y1="13.74" x2="42.36" y2="13.74"/><rect class="cls-3" x="33.47" y="13.82" width="12.4" height="3.54"/><rect class="cls-3" x="75.99" y="10.28" width="1.77" height="1.77"/><polygon class="cls-3" points="17.45 26.22 15.67 26.22 14.21 24.79 15.67 12.05 17.45 12.05 17.45 26.22"/><polygon class="cls-3" points="45.88 13.9 44.1 13.9 44.46 0.01 45.88 1.42 45.88 13.9"/><polygon class="cls-3" points="74.22 26.22 61.82 26.22 60.39 24.79 61.82 13.82 72.83 12.51 74.22 13.82 74.22 26.22"/><polygon class="cls-3" points="77.77 26.22 75.99 26.22 74.6 24.79 76.31 12.4 77.77 13.73 77.77 26.22"/><polygon class="cls-3" points="106.11 31.54 75.99 31.54 74.54 30.04 75.99 27.99 106.11 27.99 106.11 31.54"/><polygon class="cls-3" points="104.34 13.82 104.34 24.45 97.25 24.45 97.25 13.82 93.63 13.82 92.24 24.84 93.63 26.3 106.11 26.3 106.11 13.82 104.34 13.82"/><rect class="cls-3" x="104.34" y="24.45" width="1.77" height="5.31"/><polygon class="cls-3" points="86.62 13.73 86.62 24.45 84.85 24.45 84.85 13.73 83.33 12.4 79.54 13.73 78.19 24.73 79.54 26.22 81.31 26.22 81.31 15.59 83.08 15.59 81.68 24.73 83.08 26.22 88.4 26.22 88.4 15.59 90.17 15.59 88.81 24.79 90.17 26.22 92.02 26.22 92.02 13.73 90.58 12.45 86.62 13.73"/><polygon class="cls-3" points="106.11 17.2 93.71 17.2 93.71 13.65 104.68 12.4 106.11 13.65 106.11 17.2"/><polygon class="cls-3" points="60.05 31.54 1.58 31.54 0.22 30.09 1.58 27.99 60.05 27.99 60.05 31.54"/><polygon class="cls-3" points="58.62 12.4 58.28 24.34 51.19 24.34 51.19 13.71 49.77 12.4 47.56 13.71 46.12 24.84 47.56 26.19 60.05 26.19 60.05 13.71 58.62 12.4"/><rect class="cls-3" x="58.28" y="24.45" width="1.77" height="5.31"/><polygon class="cls-3" points="3.27 17.36 13.99 17.36 13.99 13.82 12.5 12.4 1.42 13.82 0.06 19.42 1.42 20.91 1.5 20.91 12.13 20.91 12.13 22.68 12.13 22.68 1.5 22.68 0.11 24.73 1.5 26.22 13.9 26.3 13.9 19.13 12.5 17.82 3.27 19.13 3.27 17.36 3.27 17.36"/><polyline class="cls-3" points="22.84 24.36 22.84 24.36 22.84 13.82 21.4 12.4 19.3 13.82 17.81 24.73 19.22 26.22 31.7 26.22 31.7 13.73 29.93 13.73 29.93 24.36 28.16 24.36 28.16 24.36 26.39 24.36"/><polyline class="cls-3" points="26.39 24.36 24.62 24.36 22.84 24.36"/><line class="cls-3" x1="22.84" y1="24.37" x2="24.62" y2="24.37"/><line class="cls-3" x1="24.62" y1="24.37" x2="26.39" y2="24.37"/><line class="cls-3" x1="28.16" y1="13.74" x2="28.16" y2="13.74"/><polyline class="cls-3" points="37.02 24.45 37.02 24.45 36.96 13.82 33.42 13.82 32.07 24.84 33.42 26.3 45.82 26.3 45.82 13.82 44.06 13.82 44.06 24.45 42.3 24.45 42.3 24.45 40.54 24.45"/><polyline class="cls-3" points="40.6 24.36 38.84 24.36 37.08 24.36"/><line class="cls-3" x1="35.32" y1="13.74" x2="35.32" y2="13.74"/><line class="cls-3" x1="37.08" y1="24.37" x2="38.84" y2="24.37"/><line class="cls-3" x1="38.84" y1="24.37" x2="40.6" y2="24.37"/><line class="cls-3" x1="42.36" y1="13.74" x2="42.36" y2="13.74"/><rect class="cls-3" x="33.47" y="13.82" width="12.4" height="3.54"/><polygon class="cls-3" points="77.77 12.05 75.99 12.05 74.65 10.63 75.99 10.28 76.31 8.75 77.77 10.28 77.77 12.05"/><path class="cls-3" d="M73.08,24.23H63v-6.7h1.44l2.28-2.28H70.5l2.58,2.57Zm-9.13-1h8.13v-5l-2-2h-3L64.8,18.53H64Z"/><path class="cls-3" d="M68.51,22.4A2.2,2.2,0,0,1,67.19,22a2.18,2.18,0,0,1-.86-1.45,2.14,2.14,0,0,1,.42-1.64,2.21,2.21,0,0,1,3.54,2.65h0a2.2,2.2,0,0,1-1.46.86A1.72,1.72,0,0,1,68.51,22.4Zm0-3.42a1.19,1.19,0,0,0-1,.49,1.21,1.21,0,0,0,.24,1.69,1.17,1.17,0,0,0,.9.23,1.19,1.19,0,0,0,.8-.47,1.21,1.21,0,0,0-.25-1.7A1.2,1.2,0,0,0,68.52,19Z"/><polygon class="cls-3" points="22.84 12.05 10.44 12.05 9.01 10.57 10.44 8.5 21.34 7.09 22.84 8.5 22.84 12.05"/></g><rect class="cls-3" x="14.26" y="10.63" width="1.77" height="14.17"/><rect class="cls-3" x="42.69" width="1.77" height="12.49"/><rect class="cls-3" x="60.4" y="12.4" width="12.4" height="12.4"/><rect class="cls-3" x="74.58" y="12.32" width="1.77" height="12.49"/><rect class="cls-3" x="74.58" y="26.57" width="30.12" height="3.54"/><polygon points="102.92 12.4 102.92 23.03 95.84 23.03 95.84 12.4 92.21 12.4 92.21 24.89 104.69 24.89 104.69 12.4 102.92 12.4"/><rect class="cls-3" x="102.92" y="23.03" width="1.77" height="5.31"/><polygon points="85.21 12.32 85.21 23.03 83.44 23.03 83.44 12.32 78.12 12.32 78.12 24.8 79.89 24.8 79.89 14.17 81.66 14.17 81.66 24.8 86.98 24.8 86.98 14.17 88.75 14.17 88.75 24.8 90.61 24.8 90.61 12.32 85.21 12.32"/><rect class="cls-3" x="92.29" y="12.4" width="12.4" height="1.77"/><rect class="cls-3" x="0.17" y="26.57" width="58.46" height="3.54"/><polygon points="56.86 12.4 56.86 23.03 49.77 23.03 49.77 12.4 46.15 12.4 46.15 24.89 58.63 24.89 58.63 12.4 56.86 12.4"/><rect class="cls-3" x="56.86" y="23.03" width="1.77" height="5.31"/><polygon points="1.85 15.95 12.57 15.95 12.48 12.4 0 12.4 0 19.49 0.08 19.49 10.71 19.49 10.71 21.26 10.71 21.26 0.17 21.26 12.48 24.89 12.48 17.72 1.85 17.72 1.85 15.95 1.85 15.95"/><polyline points="17.8 24.8 30.29 24.8 30.29 12.32 28.51 12.32 28.51 22.95 26.74 22.95 26.74 22.95 24.97 22.95"/><polyline points="21.43 22.95 21.43 22.95 21.43 12.4"/><polyline points="24.97 22.95 23.2 22.95 21.43 22.95"/><line class="cls-4" x1="21.43" y1="22.95" x2="23.2" y2="22.95"/><line class="cls-4" x1="23.2" y1="22.95" x2="24.97" y2="22.95"/><line class="cls-4" x1="26.74" y1="12.32" x2="26.74" y2="12.32"/><polyline points="35.66 23.03 35.66 23.03 35.6 12.4 32.06 12.4 32.06 24.89 44.46 24.89 44.46 12.4 42.7 12.4 42.7 23.03 40.94 23.03 40.94 23.03 39.18 23.03"/><polyline points="39.18 22.95 37.42 22.95 35.66 22.95"/><line class="cls-4" x1="33.9" y1="12.32" x2="33.9" y2="12.32"/><line class="cls-4" x1="35.66" y1="22.95" x2="37.42" y2="22.95"/><line class="cls-4" x1="37.42" y1="22.95" x2="39.18" y2="22.95"/><line class="cls-4" x1="40.94" y1="12.32" x2="40.94" y2="12.32"/><rect class="cls-3" x="32.06" y="12.4" width="12.4" height="3.54"/><rect class="cls-3" x="74.58" y="8.86" width="1.77" height="1.77"/><rect class="cls-3" x="14.26" y="10.63" width="1.77" height="14.17"/><rect class="cls-3" x="42.69" width="1.77" height="12.49"/><rect class="cls-3" x="60.4" y="12.4" width="12.4" height="12.4"/><rect class="cls-3" x="74.58" y="12.32" width="1.77" height="12.49"/><rect class="cls-3" x="74.58" y="26.57" width="30.12" height="3.54"/><polygon points="102.92 12.4 102.92 23.03 95.84 23.03 95.84 12.4 92.21 12.4 92.21 24.89 104.69 24.89 104.69 12.4 102.92 12.4"/><rect class="cls-3" x="102.92" y="23.03" width="1.77" height="5.31"/><polygon points="85.21 12.32 85.21 23.03 83.44 23.03 83.44 12.32 78.12 12.32 78.12 24.8 79.89 24.8 79.89 14.17 81.66 14.17 81.66 24.8 86.98 24.8 86.98 14.17 88.75 14.17 88.75 24.8 90.61 24.8 90.61 12.32 85.21 12.32"/><polygon class="cls-3" points="104.69 15.95 92.29 15.95 92.29 12.4 104.69 12.4 104.69 13.78 104.69 15.95"/><rect class="cls-3" x="0.17" y="26.57" width="58.46" height="3.54"/><polygon points="56.86 12.4 56.86 23.03 49.77 23.03 49.77 12.4 46.15 12.4 46.15 24.89 58.63 24.89 58.63 12.4 56.86 12.4"/><rect class="cls-3" x="56.86" y="23.03" width="1.77" height="5.31"/><polygon points="1.85 15.95 12.57 15.95 12.57 12.4 0 12.4 0 19.49 0.08 19.49 10.71 19.49 10.71 21.26 10.71 21.26 0.08 21.26 0.08 24.8 12.48 24.89 12.48 17.72 1.85 17.72 1.85 15.95 1.85 15.95"/><polyline points="21.43 22.95 21.43 22.95 21.43 12.4 17.88 12.4 17.8 24.8 30.29 24.8 30.29 12.32 28.51 12.32 28.51 22.95 26.74 22.95 26.74 22.95 24.97 22.95"/><polyline points="24.97 22.95 23.2 22.95 21.43 22.95"/><line class="cls-4" x1="21.43" y1="22.95" x2="23.2" y2="22.95"/><line class="cls-4" x1="23.2" y1="22.95" x2="24.97" y2="22.95"/><line class="cls-4" x1="26.74" y1="12.32" x2="26.74" y2="12.32"/><polyline points="35.66 23.03 35.66 23.03 35.6 12.4 32.06 12.4 32.06 24.89 44.46 24.89 44.46 12.4 42.7 12.4 42.7 23.03 40.94 23.03 40.94 23.03 39.18 23.03"/><polyline points="39.18 22.95 37.42 22.95 35.66 22.95"/><line class="cls-4" x1="33.9" y1="12.32" x2="33.9" y2="12.32"/><line class="cls-4" x1="35.66" y1="22.95" x2="37.42" y2="22.95"/><line class="cls-4" x1="37.42" y1="22.95" x2="39.18" y2="22.95"/><line class="cls-4" x1="40.94" y1="12.32" x2="40.94" y2="12.32"/><rect class="cls-3" x="32.06" y="12.4" width="12.4" height="3.54"/><rect class="cls-3" x="74.58" y="8.86" width="1.77" height="1.77"/><path class="cls-4" d="M71.66,22.81H61.54v-6.7H63l2.28-2.28h3.84l2.57,2.57Zm-9.12-1h8.12v-5l-2-2h-3l-2.28,2.28h-.84Z"/><path class="cls-4" d="M67.1,21a2.22,2.22,0,1,1,1.77-.89h0a2.18,2.18,0,0,1-1.46.86A1.63,1.63,0,0,1,67.1,21Zm0-3.43A1.22,1.22,0,0,0,65.9,19a1.19,1.19,0,0,0,.47.79,1.22,1.22,0,0,0,1.7-.24,1.2,1.2,0,0,0-.25-1.69A1.15,1.15,0,0,0,67.1,17.56Z"/><rect class="cls-3" x="9.03" y="7.09" width="12.4" height="3.54"/><circle class="cls-5" cx="67.59" cy="17.99" r="0.59"/></g></g></g></svg>